<svg width="232" height="232" viewBox="0 0 232 232" fill="none" xmlns="http://www.w3.org/2000/svg">
<g clip-path="url(#clip0_2645_7401)">
<circle cx="116" cy="116" r="115.259" fill="#F7F7F7" stroke="#0A0A0A" stroke-width="1.48257"/>
<circle cx="116" cy="116" r="49.7685" stroke="#0A0A0A" stroke-width="1.48257"/>
<path d="M175.579 63.8087L186.97 57.9229L188.957 61.7697C190.825 65.3843 189.79 69.1543 186.457 70.8764C183.125 72.5984 179.434 71.2701 177.566 67.6555L175.579 63.8087ZM177.424 64.4938L178.744 67.0472C180.217 69.8991 183.127 70.9373 185.78 69.5665C188.417 68.2043 189.254 65.2299 187.78 62.3779L186.461 59.8245L177.424 64.4938Z" fill="#0A0A0A"/>
<path d="M188.304 87.8708C187.621 84.391 190.025 80.8387 193.56 80.1456C197.094 79.4525 200.643 81.8378 201.325 85.3176C202.011 88.8157 199.619 92.3278 196.084 93.0209C192.549 93.714 188.989 91.3689 188.304 87.8708ZM189.622 87.6123C190.154 90.3228 192.98 92.127 195.8 91.574C198.603 91.0246 200.538 88.2867 200.007 85.5761C199.475 82.8656 196.645 81.043 193.843 81.5925C191.023 82.1455 189.091 84.9017 189.622 87.6123Z" fill="#0A0A0A"/>
<path d="M193.583 103.113L206.361 104.181L206.24 105.631L195.181 112.686L205.578 113.554L205.457 115.005L192.679 113.938L192.8 112.487L203.859 105.432L193.462 104.564L193.583 103.113Z" fill="#0A0A0A"/>
<path d="M190.229 134.027L193.406 133.818L195.862 127.106L193.57 124.896L194.115 123.406L204.213 133.122L203.668 134.612L189.684 135.517L190.229 134.027ZM196.954 128.141L194.908 133.732L202.255 133.26L196.954 128.141Z" fill="#0A0A0A"/>
<path d="M186.29 146.585L195.884 152.816L198.233 149.2L199.391 149.953L193.901 158.405L192.743 157.653L195.091 154.037L185.497 147.805L186.29 146.585Z" fill="#0A0A0A"/>
<path d="M180.776 174.09L186.373 168.763L183.465 165.708L178.422 170.507L177.47 169.507L182.513 164.708L179.438 161.476L173.841 166.803L172.889 165.803L179.554 159.46L188.393 168.747L181.728 175.091L180.776 174.09Z" fill="#0A0A0A"/>
<path d="M155.763 180.655L160.115 191.236L164.103 189.596L164.628 190.873L155.307 194.707L154.782 193.43L158.769 191.79L154.417 181.209L155.763 180.655Z" fill="#0A0A0A"/>
<path d="M137.195 188.542C140.719 188.142 144.066 190.824 144.473 194.403C144.879 197.982 142.216 201.327 138.693 201.727C135.151 202.13 131.843 199.462 131.436 195.883C131.03 192.304 133.653 188.945 137.195 188.542ZM137.347 189.878C134.602 190.189 132.577 192.861 132.901 195.717C133.223 198.554 135.797 200.704 138.541 200.392C141.286 200.08 143.33 197.406 143.008 194.569C142.683 191.713 140.092 189.566 137.347 189.878Z" fill="#0A0A0A"/>
<path d="M105.982 190.608C108.985 191.509 110.452 194.346 109.519 197.457L107.361 204.643L105.967 204.224L108.124 197.038C108.833 194.679 107.782 192.531 105.601 191.877C103.42 191.222 101.361 192.435 100.652 194.795L98.4952 201.981L97.1009 201.562L99.2581 194.376C100.192 191.266 102.979 189.706 105.982 190.608Z" fill="#0A0A0A"/>
<path d="M87.6574 185.608C89.4765 186.675 90.5221 188.176 90.9908 189.922L89.6259 190.441C89.2399 188.96 88.4841 187.629 86.9387 186.723C85.2322 185.722 83.8152 186.146 83.2298 187.144C82.5404 188.319 83.313 189.399 84.9804 190.983C86.8998 192.802 87.8943 194.315 86.7706 196.231C85.7319 198.002 83.3516 198.445 81.2266 197.198C79.5846 196.235 78.7388 194.874 78.2723 193.345L79.621 192.816C80.0193 194.24 80.8024 195.413 81.9614 196.093C83.3298 196.896 84.8473 196.596 85.4422 195.582C86.1126 194.439 85.254 193.394 83.6349 191.839C81.8187 190.102 80.7493 188.458 81.8919 186.51C82.9212 184.756 85.0817 184.097 87.6574 185.608Z" fill="#0A0A0A"/>
<path d="M56.3902 167.571L45.0688 173.589L43.0363 169.766C41.1264 166.174 42.1174 162.392 45.4298 160.631C48.7421 158.87 52.4479 160.155 54.3577 163.747L56.3902 167.571ZM54.5368 166.907L53.1877 164.369C51.6808 161.535 48.7586 160.531 46.1219 161.933C43.5016 163.326 42.6995 166.31 44.2063 169.144L45.5555 171.682L54.5368 166.907Z" fill="#0A0A0A"/>
<path d="M43.3849 143.659C44.1078 147.131 41.7459 150.711 38.2195 151.445C34.6931 152.179 31.1167 149.836 30.3938 146.364C29.6671 142.874 32.0183 139.335 35.5447 138.6C39.0711 137.866 42.6581 140.169 43.3849 143.659ZM42.0693 143.933C41.5062 141.229 38.6591 139.458 35.8453 140.044C33.0497 140.626 31.1462 143.386 31.7094 146.09C32.2725 148.795 35.1234 150.584 37.9189 150.002C40.7328 149.416 42.6324 146.637 42.0693 143.933Z" fill="#0A0A0A"/>
<path d="M37.9271 128.479L25.1381 127.561L25.2423 126.109L36.2176 118.926L25.8115 118.179L25.9157 116.727L38.7046 117.645L38.6004 119.097L27.6251 126.28L38.0313 127.027L37.9271 128.479Z" fill="#0A0A0A"/>
<path d="M40.9199 97.528L37.7458 97.7741L35.3683 104.515L37.6858 106.698L37.1581 108.194L26.9472 98.5966L27.4748 97.1005L41.4475 96.032L40.9199 97.528ZM34.2645 103.493L36.2447 97.878L28.9038 98.4357L34.2645 103.493Z" fill="#0A0A0A"/>
<path d="M44.7121 84.9259L35.0453 78.807L32.7394 82.4498L31.5725 81.7112L36.9627 73.1955L38.1297 73.9341L35.8239 77.577L45.4907 83.6959L44.7121 84.9259Z" fill="#0A0A0A"/>
<path d="M49.904 57.3574L44.3696 62.7493L47.3129 65.7705L52.2993 60.9126L53.263 61.9018L48.2767 66.7597L51.3894 69.9547L56.9238 64.5629L57.8876 65.5521L51.297 71.9728L42.3497 62.7889L48.9402 56.3682L49.904 57.3574Z" fill="#0A0A0A"/>
<path d="M74.8377 50.5005L70.3624 39.9714L66.3947 41.6579L65.8544 40.3869L75.1296 36.4445L75.6699 37.7155L71.7021 39.402L76.1775 49.931L74.8377 50.5005Z" fill="#0A0A0A"/>
<path d="M93.3125 42.3967C89.794 42.838 86.4154 40.1959 85.967 36.6218C85.5187 33.0478 88.1424 29.6715 91.6609 29.2301C95.1979 28.7865 98.5372 31.4148 98.9855 34.9888C99.4338 38.5629 96.8495 41.953 93.3125 42.3967ZM93.1452 41.0634C95.8859 40.7196 97.8802 38.0242 97.5225 35.1723C97.1671 32.339 94.5689 30.2197 91.8281 30.5635C89.0874 30.9072 87.0746 33.605 87.43 36.4383C87.7877 39.2901 90.4045 41.4072 93.1452 41.0634Z" fill="#0A0A0A"/>
<path d="M124.499 39.9665C121.486 39.1002 119.986 36.2803 120.883 33.1593L122.956 25.9486L124.355 26.3508L122.282 33.5615C121.601 35.9292 122.677 38.0639 124.865 38.693C127.054 39.3221 129.099 38.0847 129.78 35.717L131.853 28.5064L133.252 28.9086L131.179 36.1193C130.281 39.2403 127.513 40.8329 124.499 39.9665Z" fill="#0A0A0A"/>
<path d="M142.881 44.7515C141.05 43.7058 139.987 42.2176 139.498 40.477L140.856 39.9418C141.26 41.4185 142.031 42.7401 143.587 43.6285C145.305 44.6094 146.717 44.1691 147.291 43.1642C147.966 41.981 147.181 40.9095 145.495 39.3452C143.555 37.5495 142.543 36.0475 143.644 34.1188C144.662 32.3359 147.037 31.8652 149.176 33.0867C150.829 34.0306 151.691 35.3822 152.175 36.9053L150.833 37.4497C150.418 36.0308 149.621 34.8667 148.454 34.2004C147.077 33.4138 145.563 33.7315 144.98 34.7526C144.323 35.9033 145.193 36.9378 146.831 38.4743C148.667 40.1891 149.756 41.8207 148.636 43.7818C147.627 45.5485 145.474 46.2321 142.881 44.7515Z" fill="#0A0A0A"/>
<circle cx="63.6478" cy="181.419" r="3.01273" fill="#0A0A0A"/>
<circle cx="165.076" cy="47.8546" r="3.01273" fill="#0A0A0A"/>
</g>
<defs>
<clipPath id="clip0_2645_7401">
<rect width="232" height="232" fill="white"/>
</clipPath>
</defs>
</svg>
