<svg width="56" height="56" viewBox="0 0 56 56" fill="none" xmlns="http://www.w3.org/2000/svg">
<g clip-path="url(#clip0_3_10057)">
<rect width="56" height="56" fill="#FDB52A"/>
<circle cx="28" cy="28" r="28" fill="#FDB52A"/>
<path d="M39.4061 26.2644C39.4061 35.2067 30.2471 40.7158 28.3437 41.7652C28.2383 41.8233 28.1198 41.8538 27.9994 41.8538C27.879 41.8538 27.7605 41.8233 27.6551 41.7652C25.7503 40.7158 16.5941 35.2067 16.5941 26.2644C16.5941 19.1356 20.8714 14.1455 28.0001 14.1455C35.1289 14.1455 39.4061 19.1356 39.4061 26.2644Z" stroke="#0A0A0A" stroke-width="4" stroke-linecap="round" stroke-linejoin="round"/>
<path d="M22.2971 25.5516C22.2971 27.0642 22.898 28.5148 23.9675 29.5843C25.037 30.6538 26.4876 31.2546 28.0001 31.2546C29.5127 31.2546 30.9632 30.6538 32.0328 29.5843C33.1023 28.5148 33.7031 27.0642 33.7031 25.5516C33.7031 24.0391 33.1023 22.5885 32.0328 21.519C30.9632 20.4495 29.5127 19.8486 28.0001 19.8486C26.4876 19.8486 25.037 20.4495 23.9675 21.519C22.898 22.5885 22.2971 24.0391 22.2971 25.5516V25.5516Z" stroke="#0A0A0A" stroke-width="4" stroke-linecap="round" stroke-linejoin="round"/>
</g>
<defs>
<clipPath id="clip0_3_10057">
<rect width="56" height="56" fill="white"/>
</clipPath>
</defs>
</svg>
