<svg width="90" height="90" viewBox="0 0 90 90" fill="none" xmlns="http://www.w3.org/2000/svg">
<path fill-rule="evenodd" clip-rule="evenodd" d="M44.5935 89.187C69.2218 89.187 89.187 69.2218 89.187 44.5935C89.187 19.9652 69.2218 0 44.5935 0C19.9652 0 0 19.9652 0 44.5935C0 69.2218 19.9652 89.187 44.5935 89.187ZM45.3623 81.4984C65.3197 81.4984 81.4984 65.3197 81.4984 45.3623C81.4984 25.4049 65.3197 9.22624 45.3623 9.22624C25.4049 9.22624 9.22624 25.4049 9.22624 45.3623C9.22624 65.3197 25.4049 81.4984 45.3623 81.4984Z" fill="black"/>
<path fill-rule="evenodd" clip-rule="evenodd" d="M23.7835 67.158C18.6966 61.8514 15.6037 54.8535 15.0079 47.4313C14.8911 45.976 16.0856 44.7903 17.5456 44.7903V44.7903C18.9846 44.7903 20.1454 45.9443 20.3139 47.3733C20.584 49.6648 21.1502 51.9126 22.0006 54.0544C23.2355 57.1644 25.0454 59.9902 27.3271 62.3705C29.6089 64.7508 32.3176 66.6389 35.2989 67.9271C38.2801 69.2153 41.4753 69.8783 44.7021 69.8783C47.929 69.8783 51.1242 69.2153 54.1054 67.9271C57.0866 66.6389 59.7954 64.7508 62.0771 62.3705C64.3588 59.9902 66.1688 57.1644 67.4036 54.0544C68.1905 52.0727 68.734 50.0004 69.0248 47.8866C69.2601 46.1763 70.6497 44.7903 72.3761 44.7903V44.7903C74.1278 44.7903 75.5636 46.2137 75.3955 47.9572C74.6987 55.1836 71.633 61.9769 66.6664 67.158C60.9798 73.0903 53.267 76.423 45.2249 76.423C37.1828 76.423 29.4701 73.0903 23.7835 67.158Z" fill="black"/>
<rect x="41.4089" y="39" width="7" height="36" fill="black"/>
<rect x="41.4089" y="39" width="7" height="36" stroke="black"/>
<path d="M29.4089 21.9444L41.733 40H48.2796L59.4089 21.9444L48.2796 32.0556L45.0063 14L41.733 32.0556L29.4089 21.9444Z" fill="black"/>
</svg>
