<svg width="199" height="59" viewBox="0 0 199 59" fill="none" xmlns="http://www.w3.org/2000/svg">
<path fill-rule="evenodd" clip-rule="evenodd" d="M28.5 59C44.2401 59 57 46.2401 57 30.5C57 14.7599 44.2401 2 28.5 2C12.7599 2 0 14.7599 0 30.5C0 46.2401 12.7599 59 28.5 59ZM28.9914 54.0862C41.7463 54.0862 52.0862 43.7463 52.0862 30.9914C52.0862 18.2364 41.7463 7.89653 28.9914 7.89653C16.2365 7.89653 5.89655 18.2364 5.89655 30.9914C5.89655 43.7463 16.2365 54.0862 28.9914 54.0862Z" fill="black"/>
<path fill-rule="evenodd" clip-rule="evenodd" d="M15.2002 44.9212C11.9491 41.5297 9.97242 37.0573 9.59163 32.3137C9.51697 31.3836 10.2804 30.6258 11.2135 30.6258V30.6258C12.1331 30.6258 12.875 31.3633 12.9827 32.2766C13.1553 33.7411 13.5172 35.1777 14.0607 36.5465C14.8499 38.5342 16.0067 40.3401 17.4649 41.8614C18.9232 43.3827 20.6544 44.5894 22.5597 45.4127C24.465 46.236 26.5071 46.6597 28.5694 46.6597C30.6317 46.6597 32.6738 46.236 34.5791 45.4127C36.4844 44.5894 38.2156 43.3826 39.6739 41.8614C41.1321 40.3401 42.2889 38.5342 43.0781 36.5465C43.581 35.28 43.9283 33.9556 44.1142 32.6047C44.2646 31.5116 45.1527 30.6258 46.256 30.6258V30.6258C47.3755 30.6258 48.2932 31.5355 48.1858 32.6498C47.7404 37.2682 45.7811 41.6099 42.6069 44.9212C38.9726 48.7125 34.0433 50.8425 28.9035 50.8425C23.7638 50.8425 18.8345 48.7125 15.2002 44.9212Z" fill="black"/>
<rect x="26.4648" y="26.9252" width="4.47375" height="23.0079" fill="black"/>
<rect x="26.4648" y="26.9252" width="4.47375" height="23.0079" stroke="black"/>
<path d="M18.7954 16.0249L26.6718 27.5643H30.8558L37.9686 16.0249L30.8558 22.4869L28.7638 10.9475L26.6718 22.4869L18.7954 16.0249Z" fill="black"/>
<path d="M78.4814 43.1406L84.7559 22.7305L84.5117 25.9775L80.2637 14.8203L77.2119 14.2588V12.1836H88.6377L88.6621 14.2588L85.0977 14.8203L94.5947 42.9697C95.4574 40.6585 96.263 38.3229 97.0117 35.9629L101.406 21.8027C102.155 19.459 102.961 17.1315 103.823 14.8203L100.308 14.2588V12.1836H109.683V14.2588L106.973 14.7227L95.1562 49H92.5195L84.8047 26.832L86.001 27.1006L79.043 49H76.4062L62.9541 14.8203L60.1709 14.2588V12.1836H70.8643L71.0352 14.2588L67.7881 14.8203L78.4814 43.1406ZM129.263 49.5615C119.513 49.5615 114.639 44.9717 114.639 35.792V14.8203L110.854 14.2588V12.1836H123.062V14.2588L119.155 14.8203V35.0596C119.155 41.0654 121.068 44.7194 124.893 46.0215C126.113 46.4284 127.586 46.6318 129.312 46.6318C131.053 46.6318 132.616 46.4121 133.999 45.9727C135.382 45.5332 136.53 44.8415 137.441 43.8975C139.248 42.0257 140.151 39.0798 140.151 35.0596V14.8203L136.416 14.2588V12.1836H146.646V14.2588L142.959 14.8203V35.792C142.959 40.1865 141.779 43.5801 139.419 45.9727C137.059 48.3652 133.674 49.5615 129.263 49.5615ZM154.263 44.2637C152.684 42.6198 151.479 40.6829 150.649 38.4531C149.836 36.207 149.429 33.9447 149.429 31.666C149.429 29.3711 149.657 27.3447 150.112 25.5869C150.568 23.8291 151.195 22.2259 151.992 20.7773C152.806 19.3288 153.774 18.0348 154.897 16.8955C156.037 15.7562 157.282 14.7959 158.633 14.0146C161.383 12.4196 164.329 11.6221 167.471 11.6221C170.612 11.6221 173.338 12.0859 175.649 13.0137C177.961 13.9251 179.906 15.1865 181.484 16.7979C184.691 20.0693 186.294 24.3662 186.294 29.6885C186.294 35.613 184.495 40.4469 180.898 44.1904C179.238 45.9157 177.301 47.2422 175.088 48.1699C172.891 49.0977 170.425 49.5615 167.69 49.5615C164.972 49.5615 162.45 49.0895 160.122 48.1455C157.811 47.2015 155.858 45.9076 154.263 44.2637ZM157.852 19.0684C156.663 20.4518 155.744 22.0632 155.093 23.9023C154.458 25.7415 154.141 27.54 154.141 29.2979C154.141 31.0557 154.271 32.6344 154.531 34.0342C154.792 35.4339 155.174 36.7604 155.679 38.0137C156.2 39.2507 156.842 40.3981 157.607 41.4561C158.389 42.514 159.292 43.4255 160.317 44.1904C162.498 45.818 165.07 46.6318 168.032 46.6318C172.085 46.6318 175.381 45.2565 177.92 42.5059C180.41 39.804 181.655 36.2803 181.655 31.9346C181.655 27.1494 180.573 23.1699 178.408 19.9961C175.934 16.3665 172.321 14.5518 167.568 14.5518C163.646 14.5518 160.407 16.0573 157.852 19.0684Z" fill="black"/>
</svg>
