<svg width="70" height="49" viewBox="0 0 70 49" fill="none" xmlns="http://www.w3.org/2000/svg">
<path d="M16.3226 0C6.00671 8.61833 0 19.1954 0 28.7277C0 40.48 6.39845 48.8372 15.4085 48.8372C23.3739 48.8372 30.1641 41.9164 30.1641 33.5592C30.1641 25.4632 23.6351 18.673 15.8003 18.673C16.9755 14.3639 20.1094 9.79355 24.5492 6.26787L16.3226 0ZM55.4968 0C45.1809 8.61833 39.1742 19.1954 39.1742 28.7277C39.1742 40.48 45.5726 48.8372 54.5827 48.8372C62.5481 48.8372 69.3383 41.9164 69.3383 33.5592C69.3383 25.4632 62.8093 18.673 54.9744 18.673C56.1497 14.3639 59.2836 9.79355 63.7234 6.26787L55.4968 0Z" fill="#0A0A0A"/>
</svg>
